# xmcd
#
# Track frame offsets:
#	150
#	16459
#	34202
#	47100
#	64917
#	82254
#	101811
#	113913
#	127800
#	153358
#	170472
#	195444
#
# Disc length: 2799 seconds
#
# Revision: 0
# Processed by: cddbd v1.5.2PL0 Copyright (c) Steve Scherf et al.
# Submitted via: audiograbber 1.83.01
#
DISCID=9f0aed0c
DTITLE=Tom Astor - Ein Abend mit Tom Astor
DYEAR=2016
DGENRE=Country
TTITLE0=Tom Astor - Ich hab im Leben nur Gas gegeben
TTITLE1=Tom Astor - Wir woll'n leben solange wir leben (Red River Valley)
TTITLE2=Tom Astor - Some broken hearts never mend
TTITLE3=Tom Astor and Michael Hirte - Jenseits der Zeit (o Waly, Waly)
TTITLE4=Tom Astor - Johnny Cash Hit Medley (Ring of fire/I walk the line)
TTITLE5=Tom Astor - Lucille
TTITLE6=Tom Astor - Du willst mich nicht verbiegen
TTITLE7=Tom Astor - Mit voller Kraft voraus
TTITLE8=Tom Astor - Orange Blossom Special
TTITLE9=Tom Astor and Michael Hirte - Hallo, guten Morgen Deutschland
TTITLE10=Tom Astor and Michael Hirte - Junger Adler
TTITLE11=Tom Astor - Alles klar - kein Problem
EXTD=2.CD von 2 CD´s
EXTT0=
EXTT1=
EXTT2=
EXTT3=
EXTT4=
EXTT5=
EXTT6=
EXTT7=
EXTT8=
EXTT9=
EXTT10=
EXTT11=
PLAYORDER=
